<svg width="512" height="512" viewBox="0 0 512 512" xmlns="http://www.w3.org/2000/svg">
  <!-- Background circle with Canadian theme -->
  <circle cx="256" cy="256" r="256" fill="#FF0000"/>
  
  <!-- Inner white circle -->
  <circle cx="256" cy="256" r="220" fill="#FFFFFF"/>
  
  <!-- Maple leaf silhouette -->
  <path d="M256 80 L280 120 L320 100 L300 140 L340 160 L300 180 L320 220 L280 200 L256 240 L232 200 L192 220 L212 180 L172 160 L212 140 L192 100 L232 120 Z" fill="#FF0000"/>
  
  <!-- Government building icon -->
  <rect x="200" y="280" width="112" height="80" fill="#1E40AF" rx="4"/>
  <rect x="210" y="290" width="8" height="60" fill="#FFFFFF"/>
  <rect x="228" y="290" width="8" height="60" fill="#FFFFFF"/>
  <rect x="246" y="290" width="8" height="60" fill="#FFFFFF"/>
  <rect x="264" y="290" width="8" height="60" fill="#FFFFFF"/>
  <rect x="282" y="290" width="8" height="60" fill="#FFFFFF"/>
  
  <!-- Roof triangle -->
  <path d="M185 280 L256 240 L327 280 Z" fill="#1E40AF"/>
  
  <!-- Service icons around the building -->
  <!-- Health cross -->
  <rect x="140" y="180" width="20" height="6" fill="#059669"/>
  <rect x="147" y="173" width="6" height="20" fill="#059669"/>
  
  <!-- Education book -->
  <rect x="352" y="175" width="20" height="15" fill="#7C3AED" rx="2"/>
  <rect x="354" y="178" width="16" height="2" fill="#FFFFFF"/>
  <rect x="354" y="182" width="12" height="2" fill="#FFFFFF"/>
  
  <!-- Employment briefcase -->
  <rect x="380" y="280" width="24" height="18" fill="#DC2626" rx="3"/>
  <rect x="388" y="275" width="8" height="8" fill="#DC2626" rx="2"/>
  
  <!-- Immigration/passport -->
  <rect x="108" y="280" width="18" height="24" fill="#059669" rx="2"/>
  <rect x="111" y="285" width="12" height="2" fill="#FFFFFF"/>
  <rect x="111" y="289" width="8" height="2" fill="#FFFFFF"/>
  <rect x="111" y="293" width="10" height="2" fill="#FFFFFF"/>
  
  <!-- Text banner -->
  <rect x="80" y="380" width="352" height="40" fill="#1E40AF" rx="8"/>
  <text x="256" y="404" text-anchor="middle" fill="#FFFFFF" font-family="Arial, sans-serif" font-size="18" font-weight="bold">CANADA SERVICES</text>
</svg>